<svg width="128" height="128" viewBox="0 0 128 128" fill="none" xmlns="http://www.w3.org/2000/svg">
<path d="M0 28H29V68H0V28Z" fill="black"/>
<path d="M14.4957 60.5114C12.5412 60.5038 10.8594 60.0227 9.45028 59.0682C8.04877 58.1136 6.96922 56.7311 6.21165 54.9205C5.46165 53.1098 5.09044 50.9318 5.09801 48.3864C5.09801 45.8485 5.47301 43.6856 6.22301 41.8977C6.98059 40.1098 8.06013 38.75 9.46165 37.8182C10.8707 36.8788 12.5488 36.4091 14.4957 36.4091C16.4427 36.4091 18.117 36.8788 19.5185 37.8182C20.9276 38.7576 22.0109 40.1212 22.7685 41.9091C23.526 43.6894 23.901 45.8485 23.8935 48.3864C23.8935 50.9394 23.5147 53.1212 22.7571 54.9318C22.0071 56.7424 20.9313 58.125 19.5298 59.0795C18.1283 60.0341 16.4503 60.5114 14.4957 60.5114ZM14.4957 56.4318C15.8291 56.4318 16.8935 55.7614 17.6889 54.4205C18.4844 53.0795 18.8783 51.0682 18.8707 48.3864C18.8707 46.6212 18.6889 45.1515 18.3253 43.9773C17.9692 42.803 17.4616 41.9205 16.8026 41.3295C16.151 40.7386 15.3821 40.4432 14.4957 40.4432C13.17 40.4432 12.1094 41.1061 11.3139 42.4318C10.5185 43.7576 10.117 45.7424 10.1094 48.3864C10.1094 50.1742 10.2874 51.6667 10.6435 52.8636C11.0071 54.053 11.5185 54.947 12.1776 55.5455C12.8366 56.1364 13.6094 56.4318 14.4957 56.4318Z" fill="white"/>
<path d="M99 28H128V68H99V28Z" fill="black"/>
<path d="M113.496 60.5114C111.541 60.5038 109.859 60.0227 108.45 59.0682C107.049 58.1136 105.969 56.7311 105.212 54.9205C104.462 53.1098 104.09 50.9318 104.098 48.3864C104.098 45.8485 104.473 43.6856 105.223 41.8977C105.981 40.1098 107.06 38.75 108.462 37.8182C109.871 36.8788 111.549 36.4091 113.496 36.4091C115.443 36.4091 117.117 36.8788 118.518 37.8182C119.928 38.7576 121.011 40.1212 121.768 41.9091C122.526 43.6894 122.901 45.8485 122.893 48.3864C122.893 50.9394 122.515 53.1212 121.757 54.9318C121.007 56.7424 119.931 58.125 118.53 59.0795C117.128 60.0341 115.45 60.5114 113.496 60.5114ZM113.496 56.4318C114.829 56.4318 115.893 55.7614 116.689 54.4205C117.484 53.0795 117.878 51.0682 117.871 48.3864C117.871 46.6212 117.689 45.1515 117.325 43.9773C116.969 42.803 116.462 41.9205 115.803 41.3295C115.151 40.7386 114.382 40.4432 113.496 40.4432C112.17 40.4432 111.109 41.1061 110.314 42.4318C109.518 43.7576 109.117 45.7424 109.109 48.3864C109.109 50.1742 109.287 51.6667 109.643 52.8636C110.007 54.053 110.518 54.947 111.178 55.5455C111.837 56.1364 112.609 56.4318 113.496 56.4318Z" fill="white"/>
<path d="M66 28H95V68H66V28Z" fill="black"/>
<path d="M80.4957 60.5114C78.5412 60.5038 76.8594 60.0227 75.4503 59.0682C74.0488 58.1136 72.9692 56.7311 72.2116 54.9205C71.4616 53.1098 71.0904 50.9318 71.098 48.3864C71.098 45.8485 71.473 43.6856 72.223 41.8977C72.9806 40.1098 74.0601 38.75 75.4616 37.8182C76.8707 36.8788 78.5488 36.4091 80.4957 36.4091C82.4427 36.4091 84.117 36.8788 85.5185 37.8182C86.9276 38.7576 88.0109 40.1212 88.7685 41.9091C89.526 43.6894 89.901 45.8485 89.8935 48.3864C89.8935 50.9394 89.5147 53.1212 88.7571 54.9318C88.0071 56.7424 86.9313 58.125 85.5298 59.0795C84.1283 60.0341 82.4503 60.5114 80.4957 60.5114ZM80.4957 56.4318C81.8291 56.4318 82.8935 55.7614 83.6889 54.4205C84.4844 53.0795 84.8783 51.0682 84.8707 48.3864C84.8707 46.6212 84.6889 45.1515 84.3253 43.9773C83.9692 42.803 83.4616 41.9205 82.8026 41.3295C82.151 40.7386 81.3821 40.4432 80.4957 40.4432C79.17 40.4432 78.1094 41.1061 77.3139 42.4318C76.5185 43.7576 76.117 45.7424 76.1094 48.3864C76.1094 50.1742 76.2874 51.6667 76.6435 52.8636C77.0071 54.053 77.5185 54.947 78.1776 55.5455C78.8366 56.1364 79.6094 56.4318 80.4957 56.4318Z" fill="white"/>
<path d="M33 28H62V68H33V28Z" fill="black"/>
<path d="M47.4957 60.5114C45.5412 60.5038 43.8594 60.0227 42.4503 59.0682C41.0488 58.1136 39.9692 56.7311 39.2116 54.9205C38.4616 53.1098 38.0904 50.9318 38.098 48.3864C38.098 45.8485 38.473 43.6856 39.223 41.8977C39.9806 40.1098 41.0601 38.75 42.4616 37.8182C43.8707 36.8788 45.5488 36.4091 47.4957 36.4091C49.4427 36.4091 51.117 36.8788 52.5185 37.8182C53.9276 38.7576 55.0109 40.1212 55.7685 41.9091C56.526 43.6894 56.901 45.8485 56.8935 48.3864C56.8935 50.9394 56.5147 53.1212 55.7571 54.9318C55.0071 56.7424 53.9313 58.125 52.5298 59.0795C51.1283 60.0341 49.4503 60.5114 47.4957 60.5114ZM47.4957 56.4318C48.8291 56.4318 49.8935 55.7614 50.6889 54.4205C51.4844 53.0795 51.8783 51.0682 51.8707 48.3864C51.8707 46.6212 51.6889 45.1515 51.3253 43.9773C50.9692 42.803 50.4616 41.9205 49.8026 41.3295C49.151 40.7386 48.3821 40.4432 47.4957 40.4432C46.17 40.4432 45.1094 41.1061 44.3139 42.4318C43.5185 43.7576 43.117 45.7424 43.1094 48.3864C43.1094 50.1742 43.2874 51.6667 43.6435 52.8636C44.0071 54.053 44.5185 54.947 45.1776 55.5455C45.8366 56.1364 46.6094 56.4318 47.4957 56.4318Z" fill="white"/>
<path d="M107.466 81.5455V85.1818H96.9545V81.5455H107.466ZM99.3409 77.3636H104.182V93.6364C104.182 94.0833 104.25 94.4318 104.386 94.6818C104.523 94.9242 104.712 95.0947 104.955 95.1932C105.205 95.2917 105.492 95.3409 105.818 95.3409C106.045 95.3409 106.273 95.322 106.5 95.2841C106.727 95.2386 106.902 95.2045 107.023 95.1818L107.784 98.7841C107.542 98.8598 107.201 98.947 106.761 99.0455C106.322 99.1515 105.788 99.2159 105.159 99.2386C103.992 99.2841 102.97 99.1288 102.091 98.7727C101.22 98.4167 100.542 97.8636 100.057 97.1136C99.572 96.3636 99.3333 95.4167 99.3409 94.2727V77.3636Z" fill="black"/>
<path d="M87.0114 99.3409C85.2159 99.3409 83.6705 98.9773 82.375 98.25C81.0871 97.5152 80.0947 96.4773 79.3977 95.1364C78.7008 93.7879 78.3523 92.1932 78.3523 90.3523C78.3523 88.5568 78.7008 86.9811 79.3977 85.625C80.0947 84.2689 81.0758 83.2121 82.3409 82.4545C83.6136 81.697 85.1061 81.3182 86.8182 81.3182C87.9697 81.3182 89.0417 81.5038 90.0341 81.875C91.0341 82.2386 91.9053 82.7879 92.6477 83.5227C93.3977 84.2576 93.9811 85.1818 94.3977 86.2955C94.8144 87.4015 95.0227 88.697 95.0227 90.1818V91.5114H80.2841V88.5114H90.4659C90.4659 87.8144 90.3144 87.197 90.0114 86.6591C89.7083 86.1212 89.2879 85.7008 88.75 85.3977C88.2197 85.0871 87.6023 84.9318 86.8977 84.9318C86.1629 84.9318 85.5114 85.1023 84.9432 85.4432C84.3826 85.7765 83.9432 86.2273 83.625 86.7955C83.3068 87.3561 83.1439 87.9811 83.1364 88.6705V91.5227C83.1364 92.3864 83.2955 93.1326 83.6136 93.7614C83.9394 94.3902 84.3977 94.875 84.9886 95.2159C85.5795 95.5568 86.2803 95.7273 87.0909 95.7273C87.6288 95.7273 88.1212 95.6515 88.5682 95.5C89.0152 95.3485 89.3977 95.1212 89.7159 94.8182C90.0341 94.5152 90.2765 94.1439 90.4432 93.7045L94.9205 94C94.6932 95.0758 94.2273 96.0152 93.5227 96.8182C92.8258 97.6136 91.9242 98.2349 90.8182 98.6818C89.7197 99.1212 88.4508 99.3409 87.0114 99.3409Z" fill="black"/>
<path d="M75.6108 86.5227L71.179 86.7955C71.1032 86.4167 70.9403 86.0758 70.6903 85.7727C70.4403 85.4621 70.1108 85.2159 69.7017 85.0341C69.3002 84.8447 68.8191 84.75 68.2585 84.75C67.5085 84.75 66.8759 84.9091 66.3608 85.2273C65.8456 85.5379 65.5881 85.9545 65.5881 86.4773C65.5881 86.8939 65.7547 87.2462 66.0881 87.5341C66.4214 87.822 66.9934 88.053 67.804 88.2273L70.9631 88.8636C72.66 89.2121 73.9252 89.7727 74.7585 90.5455C75.5919 91.3182 76.0085 92.3333 76.0085 93.5909C76.0085 94.7348 75.6714 95.7386 74.9972 96.6023C74.3305 97.4659 73.4138 98.1402 72.2472 98.625C71.0881 99.1023 69.7509 99.3409 68.2358 99.3409C65.9252 99.3409 64.0843 98.8599 62.7131 97.8977C61.3494 96.928 60.5502 95.6099 60.3153 93.9432L65.0767 93.6932C65.2206 94.3977 65.5691 94.9356 66.1222 95.3068C66.6752 95.6705 67.3835 95.8523 68.2472 95.8523C69.0956 95.8523 69.7775 95.6894 70.2926 95.3636C70.8153 95.0303 71.0805 94.6023 71.0881 94.0795C71.0805 93.6402 70.8949 93.2803 70.5312 93C70.1676 92.7121 69.607 92.4924 68.8494 92.3409L65.8267 91.7386C64.1222 91.3977 62.8532 90.8068 62.0199 89.9659C61.1941 89.125 60.7812 88.053 60.7812 86.75C60.7812 85.6288 61.0843 84.6629 61.6903 83.8523C62.304 83.0417 63.1638 82.4167 64.2699 81.9773C65.3835 81.5379 66.6866 81.3182 68.179 81.3182C70.3835 81.3182 72.1184 81.7841 73.3835 82.7159C74.6562 83.6477 75.3987 84.9167 75.6108 86.5227Z" fill="black"/>
<path d="M49.9176 99.3409C48.1222 99.3409 46.5767 98.9773 45.2812 98.25C43.9934 97.5152 43.0009 96.4773 42.304 95.1364C41.607 93.7879 41.2585 92.1932 41.2585 90.3523C41.2585 88.5568 41.607 86.9811 42.304 85.625C43.0009 84.2689 43.982 83.2121 45.2472 82.4545C46.5199 81.697 48.0123 81.3182 49.7244 81.3182C50.8759 81.3182 51.9479 81.5038 52.9403 81.875C53.9403 82.2386 54.8116 82.7879 55.554 83.5227C56.304 84.2576 56.8873 85.1818 57.304 86.2955C57.7206 87.4015 57.929 88.697 57.929 90.1818V91.5114H43.1903V88.5114H53.3722C53.3722 87.8144 53.2206 87.197 52.9176 86.6591C52.6146 86.1212 52.1941 85.7008 51.6562 85.3977C51.1259 85.0871 50.5085 84.9318 49.804 84.9318C49.0691 84.9318 48.4176 85.1023 47.8494 85.4432C47.2888 85.7765 46.8494 86.2273 46.5312 86.7955C46.2131 87.3561 46.0502 87.9811 46.0426 88.6705V91.5227C46.0426 92.3864 46.2017 93.1326 46.5199 93.7614C46.8456 94.3902 47.304 94.875 47.8949 95.2159C48.4858 95.5568 49.1866 95.7273 49.9972 95.7273C50.535 95.7273 51.0275 95.6515 51.4744 95.5C51.9214 95.3485 52.304 95.1212 52.6222 94.8182C52.9403 94.5152 53.1828 94.1439 53.3494 93.7045L57.8267 94C57.5994 95.0758 57.1335 96.0152 56.429 96.8182C55.732 97.6136 54.8305 98.2349 53.7244 98.6818C52.6259 99.1212 51.357 99.3409 49.9176 99.3409Z" fill="black"/>
<path d="M21.3352 99V75.7273H30.517C32.2746 75.7273 33.7746 76.0417 35.017 76.6705C36.267 77.2917 37.2178 78.1742 37.8693 79.3182C38.5284 80.4545 38.858 81.7917 38.858 83.3295C38.858 84.875 38.5246 86.2045 37.858 87.3182C37.1913 88.4242 36.2254 89.2727 34.9602 89.8636C33.7027 90.4545 32.1799 90.75 30.392 90.75H24.2443V86.7955H29.5966C30.536 86.7955 31.3163 86.6667 31.9375 86.4091C32.5587 86.1515 33.0208 85.7652 33.3239 85.25C33.6345 84.7348 33.7898 84.0947 33.7898 83.3295C33.7898 82.5568 33.6345 81.9053 33.3239 81.375C33.0208 80.8447 32.5549 80.4432 31.9261 80.1705C31.3049 79.8902 30.5208 79.75 29.5739 79.75H26.2557V99H21.3352ZM33.9034 88.4091L39.6875 99H34.2557L28.5966 88.4091H33.9034Z" fill="black"/>
</svg>
